<svg width="28" height="18" viewBox="0 0 28 18" fill="none" xmlns="http://www.w3.org/2000/svg">
<path d="M0.953264 7.55512L11.5805 1.19691C11.8434 1.03694 12.1444 0.950508 12.4522 0.946647C12.7599 0.942787 13.063 1.02164 13.3298 1.17496C13.6194 1.34356 13.8591 1.58578 14.0248 1.87701C14.1904 2.16825 14.276 2.49813 14.2729 2.83316V7.2811L24.4415 1.19522C24.7044 1.03525 25.0055 0.94882 25.3132 0.944959C25.6209 0.941099 25.924 1.01995 26.1909 1.17327C26.4804 1.34187 26.7202 1.58409 26.8858 1.87533C27.0514 2.16656 27.137 2.49645 27.1339 2.83147V15.2666C27.1372 15.6017 27.0516 15.9317 26.886 16.2231C26.7204 16.5144 26.4805 16.7567 26.1909 16.9253C25.924 17.0787 25.6209 17.1575 25.3132 17.1536C25.0055 17.1498 24.7044 17.0634 24.4415 16.9034L14.2729 10.8147V15.2643C14.2765 15.5998 14.1912 15.9303 14.0255 16.2221C13.8599 16.5139 13.6198 16.7565 13.3298 16.9253C13.063 17.0787 12.7599 17.1575 12.4522 17.1536C12.1444 17.1498 11.8434 17.0634 11.5805 16.9034L0.953264 10.5452C0.700625 10.3869 0.49234 10.1671 0.347956 9.90624C0.203573 9.64542 0.127827 9.3522 0.127827 9.05408C0.127827 8.75597 0.203573 8.46274 0.347956 8.20193C0.49234 7.94111 0.700625 7.72126 0.953264 7.563V7.55512Z" fill="#E1E1E6"/>
</svg>
