<svg width="28" height="18" viewBox="0 0 28 18" fill="none" xmlns="http://www.w3.org/2000/svg">
<path d="M26.7567 7.55512L16.1295 1.19691C15.8666 1.03694 15.5656 0.950508 15.2578 0.946647C14.9501 0.942787 14.647 1.02164 14.3802 1.17496C14.0906 1.34356 13.8509 1.58578 13.6853 1.87701C13.5196 2.16825 13.434 2.49813 13.4371 2.83316V7.2811L3.26849 1.19522C3.00558 1.03525 2.70454 0.94882 2.39681 0.944959C2.08909 0.941099 1.78597 1.01995 1.51913 1.17327C1.2296 1.34187 0.989849 1.58409 0.824218 1.87533C0.658588 2.16656 0.572981 2.49645 0.576091 2.83147V15.2666C0.572881 15.6017 0.658441 15.9317 0.824076 16.223C0.989712 16.5144 1.22952 16.7567 1.51913 16.9253C1.78597 17.0787 2.08909 17.1575 2.39681 17.1536C2.70454 17.1498 3.00558 17.0634 3.26849 16.9034L13.4371 10.8147V15.2643C13.4335 15.5998 13.5189 15.9303 13.6845 16.2221C13.8502 16.5138 14.0902 16.7565 14.3802 16.9253C14.647 17.0787 14.9501 17.1575 15.2578 17.1536C15.5656 17.1498 15.8666 17.0634 16.1295 16.9034L26.7567 10.5452C27.0094 10.3869 27.2177 10.1671 27.3621 9.90624C27.5064 9.64542 27.5822 9.3522 27.5822 9.05408C27.5822 8.75597 27.5064 8.46274 27.3621 8.20193C27.2177 7.94111 27.0094 7.72126 26.7567 7.563V7.55512Z" fill="#E1E1E6"/>
</svg>
