<svg width="20" height="20" viewBox="0 0 20 20" fill="none" xmlns="http://www.w3.org/2000/svg">
<path d="M9.83338 7.16683C8.91671 7.16683 8.16671 7.91683 8.16671 8.8335C8.16671 9.75016 8.91671 10.5002 9.83338 10.5002C10.75 10.5002 11.5 9.75016 11.5 8.8335C11.5 7.91683 10.75 7.16683 9.83338 7.16683ZM9.83338 3.00016C12.5584 3.00016 15.6667 5.05016 15.6667 8.9585C15.6667 11.4418 13.8917 14.0585 10.3417 16.7835C10.0417 17.0168 9.62505 17.0168 9.32505 16.7835C5.77505 14.0502 4.00005 11.4418 4.00005 8.9585C4.00005 5.05016 7.10838 3.00016 9.83338 3.00016Z" fill="#9D99E4"/>
</svg>
